<svg xmlns="http://www.w3.org/2000/svg" viewBox="0 0 64 64"><g fill="#fff"><path d="M54.7 9.4L52 29.2 32 32l3-19.8z" opacity=".7"/><path d="M9.4 54.6l2.8-19.8L32 32l-2.8 19.8z" opacity=".5"/><path d="M9.4 9.4l19.8 2.8L32 32l-19.8-2.8z" opacity=".7"/><path d="M54.6 54.6l-19.8-2.8L32 32l19.8 2.8z" opacity=".5"/><path d="M32 64L20 48l12-16 12 16z" opacity=".4"/><path d="M64 32L48 44 32 32l16-12z" opacity=".6"/><path d="M32 0l12 16-12 16-12-16z" opacity=".8"/><path d="M0 32l16-12 16 12-16 12z" opacity=".6"/><path d="M32 24.4l7.6 7.6-7.6 7.6-7.6-7.6z"/></g></svg>