<?xml version="1.0" encoding="UTF-8" standalone="no"?>
<!-- Created with Inkscape (http://www.inkscape.org/) -->

<svg
   xmlns:dc="http://purl.org/dc/elements/1.1/"
   xmlns:cc="http://creativecommons.org/ns#"
   xmlns:rdf="http://www.w3.org/1999/02/22-rdf-syntax-ns#"
   xmlns:svg="http://www.w3.org/2000/svg"
   xmlns="http://www.w3.org/2000/svg"
   xmlns:sodipodi="http://sodipodi.sourceforge.net/DTD/sodipodi-0.dtd"
   xmlns:inkscape="http://www.inkscape.org/namespaces/inkscape"
   width="99.913277mm"
   height="12.581467mm"
   viewBox="0 0 99.913277 12.581467"
   version="1.1"
   id="svg44"
   inkscape:version="0.92.2 5c3e80d, 2017-08-06"
   sodipodi:docname="t3chfest.svg">
  <defs
     id="defs38" />
  <sodipodi:namedview
     id="base"
     pagecolor="#ffffff"
     bordercolor="#666666"
     borderopacity="1.0"
     inkscape:pageopacity="0.0"
     inkscape:pageshadow="2"
     inkscape:zoom="0.35"
     inkscape:cx="-239.75893"
     inkscape:cy="295.20459"
     inkscape:document-units="mm"
     inkscape:current-layer="layer1"
     showgrid="false"
     fit-margin-top="0"
     fit-margin-left="0"
     fit-margin-right="0"
     fit-margin-bottom="0"
     inkscape:window-width="1916"
     inkscape:window-height="994"
     inkscape:window-x="0"
     inkscape:window-y="84"
     inkscape:window-maximized="0" />
  <metadata
     id="metadata41">
    <rdf:RDF>
      <cc:Work
         rdf:about="">
        <dc:format>image/svg+xml</dc:format>
        <dc:type
           rdf:resource="http://purl.org/dc/dcmitype/StillImage" />
        <dc:title></dc:title>
      </cc:Work>
    </rdf:RDF>
  </metadata>
  <g
     inkscape:label="Layer 1"
     inkscape:groupmode="layer"
     id="layer1"
     transform="translate(-93.674312,-214.35808)">
    <g
       id="g3856"
       transform="matrix(0.26458333,0,0,0.26458333,93.674312,214.35808)">
      <path
         style="fill:#ffffff"
         inkscape:connector-curvature="0"
         id="path3792"
         d="m 15.604,5.438 c 1.34,0.17 2.652,0.548 3.937,1.133 0.302,-0.17 0.59,-0.297 0.864,-0.382 0.273,-0.085 0.542,-0.127 0.807,-0.127 0.868,0 1.572,0.297 2.11,0.892 0.538,0.595 0.807,1.591 0.807,2.988 v 1.869 c 0,1.397 -0.269,2.393 -0.807,2.988 -0.538,0.595 -1.232,0.892 -2.082,0.892 -0.774,0 -1.43,-0.255 -1.968,-0.765 -0.538,-0.51 -0.854,-1.255 -0.949,-2.237 -1.359,-1.076 -3.059,-1.614 -5.098,-1.614 -2.134,0 -3.696,0.382 -4.687,1.147 -0.991,0.765 -1.487,1.61 -1.487,2.535 0,0.718 0.302,1.359 0.906,1.926 0.604,0.566 1.869,1.048 3.795,1.444 l 3.852,0.821 c 3.247,0.661 5.579,1.652 6.995,2.974 1.85,1.681 2.775,3.899 2.775,6.655 0,2.417 -0.845,4.564 -2.535,6.443 -1.69,1.879 -4.102,3.12 -7.236,3.724 v 4.928 c 0,1.397 -0.269,2.393 -0.807,2.988 -0.538,0.595 -1.242,0.892 -2.11,0.892 -0.85,0 -1.543,-0.297 -2.082,-0.892 C 10.065,46.065 9.797,45.069 9.797,43.672 V 38.744 C 8.286,38.423 6.776,37.923 5.266,37.243 4.454,37.923 3.699,38.263 3,38.263 2.075,38.263 1.343,37.971 0.805,37.385 0.269,36.798 0,35.807 0,34.409 v -3.653 c 0,-1.397 0.269,-2.393 0.807,-2.988 0.538,-0.595 1.241,-0.892 2.11,-0.892 0.698,0 1.284,0.189 1.756,0.566 0.472,0.378 0.812,0.958 1.02,1.742 0.208,0.784 0.5,1.374 0.878,1.77 0.566,0.604 1.43,1.109 2.591,1.515 1.161,0.406 2.355,0.609 3.583,0.609 2.152,0 3.946,-0.557 5.381,-1.671 0.963,-0.736 1.444,-1.689 1.444,-2.86 0,-0.963 -0.321,-1.756 -0.963,-2.379 -0.642,-0.604 -1.992,-1.114 -4.05,-1.529 L 10.196,23.761 C 7.118,23.157 4.862,22.053 3.427,20.448 1.992,18.844 1.275,16.918 1.275,14.671 1.275,12.443 2.049,10.461 3.597,8.724 5.145,6.987 7.212,5.892 9.799,5.439 V 3.852 c 0,-1.378 0.269,-2.365 0.807,-2.959 C 11.144,0.299 11.847,0 12.716,0 c 0.85,0 1.543,0.297 2.082,0.892 0.539,0.595 0.807,1.582 0.807,2.959 v 1.587 z"
         class="st0" />
      <path
         style="fill:#ffffff"
         inkscape:connector-curvature="0"
         id="path3794"
         d="M 53.639,23.761 34.834,13.339 c -0.944,-0.528 -1.572,-1 -1.883,-1.416 -0.312,-0.415 -0.467,-0.944 -0.467,-1.586 0,-0.812 0.292,-1.51 0.878,-2.096 0.585,-0.585 1.274,-0.878 2.067,-0.878 0.491,0 1.246,0.274 2.266,0.821 L 65.704,23.76 37.694,39.337 c -1.02,0.566 -1.775,0.85 -2.266,0.85 -0.793,0 -1.482,-0.292 -2.067,-0.878 -0.585,-0.585 -0.878,-1.293 -0.878,-2.124 0,-0.642 0.156,-1.17 0.467,-1.586 0.312,-0.415 0.939,-0.887 1.883,-1.416 z"
         class="st0" />
      <path
         style="fill:#005db2"
         inkscape:connector-curvature="0"
         id="path3796"
         d="m 115.688,20.391 v 11.64 c 0,1.246 0.255,2.067 0.765,2.464 0.793,0.623 2.209,0.935 4.248,0.935 2.964,0 5.702,-0.632 8.213,-1.897 0.963,-0.491 1.718,-0.736 2.266,-0.736 0.755,0 1.411,0.283 1.968,0.85 0.557,0.566 0.835,1.256 0.835,2.067 0,0.755 -0.302,1.407 -0.906,1.954 -0.925,0.888 -2.752,1.704 -5.48,2.45 -2.729,0.746 -5.027,1.119 -6.896,1.119 -3.606,0 -6.311,-0.779 -8.114,-2.336 -1.803,-1.558 -2.705,-3.469 -2.705,-5.735 V 20.391 h -2.096 c -1.397,0 -2.393,-0.269 -2.988,-0.807 -0.595,-0.538 -0.892,-1.241 -0.892,-2.11 0,-0.85 0.297,-1.543 0.892,-2.082 0.595,-0.539 1.59,-0.807 2.988,-0.807 h 2.096 V 9.346 c 0,-1.397 0.269,-2.393 0.807,-2.988 0.538,-0.595 1.241,-0.892 2.11,-0.892 0.85,0 1.543,0.297 2.082,0.892 0.539,0.595 0.807,1.591 0.807,2.988 v 5.239 h 10.733 c 1.397,0 2.393,0.269 2.988,0.807 0.595,0.538 0.892,1.242 0.892,2.11 0,0.85 -0.297,1.543 -0.892,2.082 -0.595,0.539 -1.591,0.807 -2.988,0.807 z"
         class="st2" />
      <path
         style="fill:#005db2"
         inkscape:connector-curvature="0"
         id="path3798"
         d="m 160.208,20.9 c 1.718,1.171 3.002,2.525 3.852,4.064 0.85,1.539 1.274,3.262 1.274,5.168 0,2.058 -0.562,3.96 -1.685,5.707 -1.124,1.747 -2.752,3.068 -4.885,3.965 -2.134,0.896 -4.928,1.345 -8.383,1.345 -4.494,0 -7.873,-0.699 -10.139,-2.096 -1.265,-0.793 -1.897,-1.737 -1.897,-2.832 0,-0.831 0.278,-1.534 0.835,-2.11 0.557,-0.576 1.232,-0.864 2.025,-0.864 0.547,0 1.114,0.189 1.699,0.566 0.831,0.566 1.614,0.944 2.351,1.133 1.133,0.265 2.69,0.396 4.673,0.396 3.379,0 5.824,-0.439 7.335,-1.317 1.51,-0.878 2.266,-2.119 2.266,-3.724 0,-1.189 -0.439,-2.336 -1.317,-3.441 -0.878,-1.105 -2.053,-1.958 -3.526,-2.563 -0.85,-0.34 -2.285,-0.576 -4.305,-0.708 -0.963,-0.057 -1.704,-0.354 -2.223,-0.892 -0.52,-0.538 -0.779,-1.204 -0.779,-1.997 0,-0.831 0.283,-1.529 0.85,-2.096 0.567,-0.567 1.284,-0.85 2.152,-0.85 1.926,0 2.955,-0.009 3.087,-0.028 0.755,-0.075 1.51,-0.321 2.266,-0.736 0.755,-0.415 1.364,-0.986 1.827,-1.713 0.462,-0.727 0.694,-1.477 0.694,-2.251 0,-1.227 -0.543,-2.289 -1.628,-3.186 -1.086,-0.896 -2.714,-1.345 -4.885,-1.345 -2.794,0 -4.928,0.812 -6.4,2.436 -0.435,0.472 -0.784,0.774 -1.048,0.906 -0.396,0.208 -0.84,0.312 -1.331,0.312 -0.793,0 -1.473,-0.283 -2.039,-0.85 -0.566,-0.567 -0.85,-1.265 -0.85,-2.096 0,-1.303 0.868,-2.567 2.605,-3.795 2.53,-1.793 5.692,-2.69 9.487,-2.69 3.587,0 6.466,1.02 8.638,3.059 2.171,2.039 3.257,4.494 3.257,7.363 0,1.492 -0.321,2.884 -0.963,4.177 -0.643,1.294 -1.606,2.489 -2.89,3.583 z"
         class="st2" />
      <path
         style="fill:#005db2"
         inkscape:connector-curvature="0"
         id="path3800"
         d="m 195.779,15.633 c 0.698,-0.661 1.416,-0.991 2.152,-0.991 0.831,0 1.516,0.297 2.053,0.892 0.539,0.595 0.808,1.582 0.808,2.959 v 3.738 c 0,1.397 -0.269,2.389 -0.808,2.974 -0.537,0.585 -1.241,0.878 -2.109,0.878 -0.793,0 -1.463,-0.227 -2.011,-0.68 -0.396,-0.34 -0.708,-1.034 -0.935,-2.082 -0.227,-1.048 -0.774,-1.827 -1.643,-2.336 -1.53,-0.906 -3.484,-1.359 -5.863,-1.359 -2.738,0 -4.933,0.803 -6.584,2.407 -1.652,1.605 -2.478,3.635 -2.478,6.089 0,2.266 0.793,4.055 2.379,5.367 1.586,1.313 4.22,1.968 7.901,1.968 2.417,0 4.39,-0.245 5.919,-0.736 0.906,-0.302 1.766,-0.816 2.577,-1.543 0.812,-0.727 1.548,-1.09 2.209,-1.09 0.793,0 1.478,0.293 2.053,0.878 0.576,0.585 0.864,1.274 0.864,2.067 0,1.284 -0.878,2.502 -2.634,3.653 -2.605,1.718 -6.419,2.577 -11.442,2.577 -4.513,0 -8.024,-0.935 -10.535,-2.804 -3.398,-2.511 -5.098,-5.947 -5.098,-10.309 0,-4.135 1.378,-7.557 4.135,-10.266 2.756,-2.709 6.353,-4.064 10.79,-4.064 1.604,0 3.097,0.151 4.475,0.453 1.379,0.303 2.654,0.756 3.825,1.36 z"
         class="st2" />
      <path
         style="fill:#005db2"
         inkscape:connector-curvature="0"
         id="path3802"
         d="m 215.546,3.568 v 12.376 c 1.208,-0.717 2.431,-1.25 3.667,-1.6 1.237,-0.349 2.488,-0.524 3.753,-0.524 2.001,0 3.785,0.34 5.353,1.02 1.568,0.68 2.865,1.751 3.895,3.214 1.028,1.463 1.543,3.309 1.543,5.537 v 10.903 c 1.473,0 2.436,0.142 2.889,0.425 0.906,0.585 1.359,1.416 1.359,2.492 0,0.85 -0.293,1.543 -0.878,2.082 -0.585,0.539 -1.576,0.807 -2.974,0.807 h -6.627 c -1.378,0 -2.365,-0.269 -2.959,-0.807 -0.596,-0.538 -0.893,-1.241 -0.893,-2.11 0,-1.057 0.453,-1.878 1.359,-2.464 0.472,-0.302 1.435,-0.443 2.889,-0.425 V 23.987 c 0,-1.491 -0.34,-2.539 -1.02,-3.144 -0.888,-0.812 -2.199,-1.218 -3.937,-1.218 -1.284,0 -2.421,0.25 -3.413,0.75 -0.99,0.5 -2.326,1.582 -4.007,3.243 v 10.875 c 1.491,0 2.454,0.142 2.889,0.425 0.925,0.585 1.388,1.416 1.388,2.492 0,0.85 -0.297,1.543 -0.893,2.082 -0.594,0.538 -1.59,0.807 -2.987,0.807 h -6.599 c -1.397,0 -2.393,-0.269 -2.988,-0.807 -0.594,-0.538 -0.892,-1.241 -0.892,-2.11 0,-1.057 0.463,-1.878 1.388,-2.464 0.453,-0.302 1.416,-0.443 2.889,-0.425 V 9.374 h -0.991 c -1.397,0 -2.394,-0.269 -2.987,-0.807 -0.596,-0.538 -0.893,-1.241 -0.893,-2.11 0,-0.85 0.297,-1.543 0.893,-2.082 0.594,-0.538 1.59,-0.807 2.987,-0.807 z"
         class="st2" />
      <path
         style="fill:#ff9e00"
         inkscape:connector-curvature="0"
         id="path3804"
         d="m 256.299,20.391 v 14.104 h 8.27 c 1.397,0 2.394,0.269 2.987,0.807 0.596,0.538 0.893,1.242 0.893,2.11 0,0.85 -0.297,1.543 -0.893,2.082 -0.594,0.538 -1.59,0.807 -2.987,0.807 h -17.53 c -1.397,0 -2.393,-0.269 -2.988,-0.807 -0.594,-0.538 -0.892,-1.241 -0.892,-2.11 0,-0.85 0.298,-1.543 0.892,-2.082 0.596,-0.538 1.591,-0.807 2.988,-0.807 h 3.455 V 20.391 h -2.775 c -1.397,0 -2.393,-0.269 -2.988,-0.807 -0.594,-0.538 -0.892,-1.241 -0.892,-2.11 0,-0.85 0.298,-1.543 0.892,-2.082 0.596,-0.538 1.591,-0.807 2.988,-0.807 h 2.775 v -2.209 c 0,-2.53 0.949,-4.63 2.846,-6.301 1.898,-1.671 4.649,-2.506 8.256,-2.506 1.604,0 3.46,0.146 5.564,0.439 2.105,0.293 3.455,0.704 4.051,1.232 0.594,0.529 0.892,1.208 0.892,2.039 0,0.888 -0.265,1.61 -0.793,2.167 -0.528,0.557 -1.18,0.835 -1.954,0.835 -0.358,0 -0.896,-0.066 -1.614,-0.198 -2.397,-0.472 -4.521,-0.708 -6.372,-0.708 -1.926,0 -3.252,0.288 -3.979,0.864 -0.728,0.576 -1.091,1.289 -1.091,2.138 v 2.209 h 8.949 c 1.397,0 2.394,0.269 2.987,0.807 0.596,0.538 0.893,1.242 0.893,2.11 0,0.85 -0.297,1.543 -0.893,2.082 -0.594,0.538 -1.59,0.807 -2.987,0.807 h -8.95 z"
         class="st1" />
      <path
         style="fill:#ff9e00"
         inkscape:connector-curvature="0"
         id="path3806"
         d="m 305.718,30.388 h -23.817 c 0.604,1.511 1.676,2.729 3.215,3.653 1.538,0.925 3.62,1.388 6.244,1.388 2.152,0 5.013,-0.462 8.581,-1.388 1.473,-0.377 2.492,-0.566 3.059,-0.566 0.774,0 1.426,0.274 1.954,0.821 0.528,0.548 0.793,1.237 0.793,2.067 0,0.755 -0.283,1.397 -0.85,1.926 -0.755,0.699 -2.596,1.364 -5.522,1.997 -2.926,0.633 -5.739,0.949 -8.439,0.949 -4.645,0 -8.359,-1.312 -11.144,-3.937 -2.785,-2.624 -4.178,-5.853 -4.178,-9.686 0,-4.078 1.506,-7.396 4.518,-9.955 3.011,-2.558 6.48,-3.837 10.407,-3.837 2.36,0 4.526,0.416 6.499,1.246 1.974,0.831 3.441,1.728 4.404,2.69 1.359,1.397 2.482,3.125 3.37,5.183 0.604,1.435 0.906,3.097 0.906,4.984 z m -6.428,-5.806 c -0.888,-1.661 -2.049,-2.903 -3.483,-3.724 -1.434,-0.821 -3.144,-1.232 -5.126,-1.232 -1.964,0 -3.663,0.411 -5.098,1.232 -1.435,0.821 -2.605,2.063 -3.512,3.724 z"
         class="st1" />
      <path
         style="fill:#ff9e00"
         inkscape:connector-curvature="0"
         id="path3808"
         d="m 332.226,21.382 c -0.944,-0.585 -1.936,-1.024 -2.974,-1.317 -1.038,-0.292 -2.124,-0.439 -3.257,-0.439 -2.247,0 -4.031,0.368 -5.353,1.104 -0.585,0.321 -0.878,0.67 -0.878,1.048 0,0.435 0.396,0.859 1.189,1.274 0.604,0.302 1.954,0.595 4.05,0.878 3.852,0.529 6.532,1.058 8.043,1.586 1.982,0.699 3.512,1.737 4.588,3.115 1.076,1.378 1.614,2.832 1.614,4.361 0,2.077 -0.916,3.814 -2.747,5.211 -2.624,2.021 -6.032,3.03 -10.224,3.03 -1.681,0 -3.233,-0.146 -4.658,-0.439 -1.426,-0.293 -2.733,-0.722 -3.923,-1.289 -0.283,0.246 -0.585,0.435 -0.906,0.566 -0.321,0.132 -0.651,0.198 -0.991,0.198 -0.906,0 -1.629,-0.297 -2.166,-0.892 -0.539,-0.595 -0.808,-1.59 -0.808,-2.988 v -1.954 c 0,-1.397 0.269,-2.393 0.808,-2.988 0.537,-0.595 1.241,-0.892 2.109,-0.892 0.698,0 1.284,0.194 1.756,0.581 0.472,0.387 0.84,1.053 1.104,1.997 0.888,0.755 1.954,1.327 3.2,1.713 1.246,0.387 2.681,0.581 4.305,0.581 2.662,0 4.729,-0.415 6.202,-1.246 0.698,-0.415 1.048,-0.85 1.048,-1.303 0,-0.755 -0.5,-1.378 -1.501,-1.869 -1.001,-0.491 -3.068,-0.906 -6.202,-1.246 -4.663,-0.491 -7.778,-1.435 -9.346,-2.832 -1.567,-1.378 -2.351,-3.077 -2.351,-5.098 0,-2.077 0.878,-3.804 2.634,-5.183 2.379,-1.888 5.494,-2.832 9.346,-2.832 1.341,0 2.629,0.127 3.865,0.382 1.237,0.255 2.422,0.647 3.555,1.175 0.358,-0.264 0.693,-0.462 1.006,-0.595 0.311,-0.132 0.599,-0.198 0.863,-0.198 0.793,0 1.454,0.297 1.982,0.892 0.528,0.595 0.793,1.591 0.793,2.988 v 1.416 c 0,1.265 -0.151,2.124 -0.453,2.577 -0.604,0.869 -1.426,1.303 -2.464,1.303 -0.698,0 -1.313,-0.217 -1.841,-0.651 -0.526,-0.432 -0.866,-1.007 -1.017,-1.725 z"
         class="st1" />
      <path
         style="fill:#ff9e00"
         inkscape:connector-curvature="0"
         id="path3810"
         d="m 359.329,20.391 v 11.64 c 0,1.246 0.255,2.067 0.765,2.464 0.793,0.623 2.209,0.935 4.248,0.935 2.964,0 5.702,-0.632 8.213,-1.897 0.963,-0.491 1.718,-0.736 2.266,-0.736 0.755,0 1.411,0.283 1.968,0.85 0.558,0.566 0.836,1.256 0.836,2.067 0,0.755 -0.302,1.407 -0.906,1.954 -0.925,0.888 -2.752,1.704 -5.48,2.45 -2.728,0.746 -5.026,1.119 -6.896,1.119 -3.606,0 -6.311,-0.779 -8.114,-2.336 -1.803,-1.558 -2.704,-3.469 -2.704,-5.735 V 20.391 h -2.096 c -1.397,0 -2.394,-0.269 -2.987,-0.807 -0.596,-0.538 -0.893,-1.241 -0.893,-2.11 0,-0.85 0.297,-1.543 0.893,-2.082 0.594,-0.538 1.59,-0.807 2.987,-0.807 h 2.096 V 9.346 c 0,-1.397 0.269,-2.393 0.808,-2.988 0.537,-0.595 1.241,-0.892 2.109,-0.892 0.85,0 1.543,0.297 2.082,0.892 0.537,0.595 0.807,1.591 0.807,2.988 v 5.239 h 10.733 c 1.397,0 2.394,0.269 2.987,0.807 0.596,0.538 0.893,1.242 0.893,2.11 0,0.85 -0.297,1.543 -0.893,2.082 -0.594,0.538 -1.59,0.807 -2.987,0.807 z"
         class="st1" />
    </g>
  </g>
</svg>
