<?xml version="1.0" encoding="UTF-8" standalone="no"?>
<!-- Created with Inkscape (http://www.inkscape.org/) -->

<svg
   xmlns:dc="http://purl.org/dc/elements/1.1/"
   xmlns:cc="http://creativecommons.org/ns#"
   xmlns:rdf="http://www.w3.org/1999/02/22-rdf-syntax-ns#"
   xmlns:svg="http://www.w3.org/2000/svg"
   xmlns="http://www.w3.org/2000/svg"
   xmlns:sodipodi="http://sodipodi.sourceforge.net/DTD/sodipodi-0.dtd"
   xmlns:inkscape="http://www.inkscape.org/namespaces/inkscape"
   width="99.913277mm"
   height="12.581467mm"
   viewBox="0 0 99.913277 12.581467"
   version="1.1"
   id="svg44"
   inkscape:version="0.92.2 5c3e80d, 2017-08-06"
   sodipodi:docname="t3chfestw.svg">
  <defs
     id="defs38" />
  <sodipodi:namedview
     id="base"
     pagecolor="#ffffff"
     bordercolor="#666666"
     borderopacity="1.0"
     inkscape:pageopacity="0.0"
     inkscape:pageshadow="2"
     inkscape:zoom="1.4"
     inkscape:cx="194.50574"
     inkscape:cy="188.08686"
     inkscape:document-units="mm"
     inkscape:current-layer="layer1"
     showgrid="false"
     fit-margin-top="0"
     fit-margin-left="0"
     fit-margin-right="0"
     fit-margin-bottom="0"
     inkscape:window-width="1916"
     inkscape:window-height="1050"
     inkscape:window-x="0"
     inkscape:window-y="28"
     inkscape:window-maximized="0" />
  <metadata
     id="metadata41">
    <rdf:RDF>
      <cc:Work
         rdf:about="">
        <dc:format>image/svg+xml</dc:format>
        <dc:type
           rdf:resource="http://purl.org/dc/dcmitype/StillImage" />
        <dc:title></dc:title>
      </cc:Work>
    </rdf:RDF>
  </metadata>
  <g
     inkscape:label="Layer 1"
     inkscape:groupmode="layer"
     id="layer1"
     transform="translate(-93.674312,-214.35808)">
    <path
       class="st0"
       d="m 97.80287,215.79688 c 0.354542,0.045 0.701675,0.145 1.041665,0.29978 0.0799,-0.045 0.156104,-0.0786 0.2286,-0.10107 0.07223,-0.0225 0.143404,-0.0336 0.213519,-0.0336 0.229658,0 0.415925,0.0786 0.55827,0.23601 0.142346,0.15743 0.213516,0.42095 0.213516,0.79058 v 0.4945 c 0,0.36963 -0.07117,0.63315 -0.213516,0.79058 -0.142345,0.15743 -0.325966,0.23601 -0.550862,0.23601 -0.204788,0 -0.378354,-0.0675 -0.5207,-0.20241 -0.142346,-0.13494 -0.225954,-0.33205 -0.25109,-0.59187 -0.359568,-0.28469 -0.80936,-0.42704 -1.348845,-0.42704 -0.564621,0 -0.9779,0.10107 -1.240103,0.30348 -0.262202,0.2024 -0.393435,0.42598 -0.393435,0.67072 0,0.18997 0.0799,0.35956 0.239713,0.50958 0.159808,0.14976 0.494506,0.27729 1.004093,0.38206 l 1.019175,0.21722 c 0.859102,0.17489 1.476111,0.4371 1.850761,0.78688 0.489479,0.44476 0.734219,1.03161 0.734219,1.7608 0,0.6395 -0.22357,1.20756 -0.670719,1.70471 -0.447146,0.49715 -1.085321,0.8255 -1.914525,0.98531 v 1.30386 c 0,0.36963 -0.07117,0.63315 -0.213519,0.79058 -0.142346,0.15743 -0.328613,0.23601 -0.558271,0.23601 -0.224896,0 -0.408252,-0.0786 -0.550862,-0.23601 -0.142611,-0.15743 -0.213519,-0.42095 -0.213519,-0.79058 v -1.30386 c -0.399786,-0.0849 -0.799306,-0.21723 -1.198827,-0.39714 -0.214842,0.17991 -0.414602,0.26987 -0.599546,0.26987 -0.24474,0 -0.438415,-0.0773 -0.58076,-0.2323 -0.141817,-0.15531 -0.21299,-0.41751 -0.21299,-0.7874 v -0.96653 c 0,-0.36962 0.07117,-0.63314 0.213519,-0.79057 0.142346,-0.15743 0.328348,-0.23601 0.558271,-0.23601 0.184679,0 0.339725,0.05 0.464608,0.14976 0.124883,0.10001 0.214842,0.25347 0.269875,0.4609 0.05503,0.20743 0.132292,0.36354 0.232304,0.46831 0.149754,0.15981 0.378354,0.29343 0.685535,0.40085 0.307182,0.10742 0.623094,0.16113 0.948003,0.16113 0.569383,0 1.044045,-0.14738 1.423722,-0.44212 0.254794,-0.19473 0.382059,-0.44688 0.382059,-0.75671 0,-0.25479 -0.08493,-0.46461 -0.254794,-0.62944 -0.169862,-0.15981 -0.52705,-0.29475 -1.071562,-0.40455 l -1.153848,-0.23231 c -0.814388,-0.1598 -1.411288,-0.4519 -1.790965,-0.87656 -0.379677,-0.42439 -0.569383,-0.93398 -0.569383,-1.5285 0,-0.58949 0.204787,-1.11389 0.614362,-1.57348 0.409575,-0.45958 0.956469,-0.7493 1.640946,-0.86915 v -0.4199 c 0,-0.36459 0.07117,-0.62573 0.213519,-0.7829 0.142346,-0.15716 0.328348,-0.23627 0.558271,-0.23627 0.224895,0 0.408252,0.0786 0.550862,0.23601 0.142611,0.15743 0.213519,0.41857 0.213519,0.7829 v 0.41989 z"
       id="path3792"
       inkscape:connector-curvature="0"
       style="fill:#000000;stroke-width:0.26458332" />
    <path
       class="st0"
       d="m 107.8663,220.64484 -4.97549,-2.75748 c -0.24977,-0.1397 -0.41593,-0.26459 -0.49821,-0.37465 -0.0825,-0.10981 -0.12356,-0.24977 -0.12356,-0.41963 0,-0.21484 0.0773,-0.39952 0.2323,-0.55457 0.15478,-0.15478 0.33708,-0.2323 0.54689,-0.2323 0.12992,0 0.32968,0.0725 0.59955,0.21722 l 7.41072,4.12115 -7.41098,4.12141 c -0.26988,0.14976 -0.46964,0.2249 -0.59955,0.2249 -0.20981,0 -0.39211,-0.0773 -0.54689,-0.2323 -0.15478,-0.15479 -0.23231,-0.34211 -0.23231,-0.56198 0,-0.16986 0.0413,-0.30956 0.12356,-0.41963 0.0825,-0.1098 0.24845,-0.23468 0.49821,-0.37465 z"
       id="path3794"
       inkscape:connector-curvature="0"
       style="fill:#000000;stroke-width:0.26458332" />
    <path
       class="st2"
       d="m 124.28343,219.7532 v 3.07975 c 0,0.32967 0.0675,0.54689 0.2024,0.65193 0.20982,0.16484 0.58447,0.24739 1.12395,0.24739 0.78423,0 1.50866,-0.16722 2.17303,-0.50192 0.25479,-0.12991 0.45455,-0.19473 0.59954,-0.19473 0.19976,0 0.37333,0.0749 0.5207,0.2249 0.14738,0.14975 0.22093,0.33231 0.22093,0.54689 0,0.19976 -0.0799,0.37227 -0.23971,0.51699 -0.24474,0.23495 -0.72814,0.45085 -1.44992,0.64823 -0.72205,0.19738 -1.33006,0.29607 -1.82457,0.29607 -0.95408,0 -1.66978,-0.20611 -2.14682,-0.61806 -0.47705,-0.41222 -0.7157,-0.91784 -0.7157,-1.51739 v -3.38005 h -0.55457 c -0.36962,0 -0.63315,-0.0712 -0.79057,-0.21352 -0.15743,-0.14235 -0.23601,-0.32835 -0.23601,-0.55827 0,-0.2249 0.0786,-0.40825 0.23601,-0.55086 0.15742,-0.14261 0.42068,-0.21352 0.79057,-0.21352 h 0.55457 v -1.38615 c 0,-0.36963 0.0712,-0.63315 0.21352,-0.79058 0.14234,-0.15743 0.32834,-0.23601 0.55827,-0.23601 0.22489,0 0.40825,0.0786 0.55086,0.23601 0.14261,0.15743 0.21352,0.42095 0.21352,0.79058 v 1.38615 h 2.83977 c 0.36962,0 0.63315,0.0712 0.79058,0.21352 0.15742,0.14234 0.236,0.32861 0.236,0.55827 0,0.22489 -0.0786,0.40825 -0.236,0.55086 -0.15743,0.14261 -0.42096,0.21352 -0.79058,0.21352 z"
       id="path3796"
       inkscape:connector-curvature="0"
       style="fill:#005db2;stroke-width:0.26458332" />
    <path
       class="st2"
       d="m 136.06268,219.88787 c 0.45455,0.30983 0.79428,0.66807 1.01917,1.07527 0.2249,0.40719 0.33708,0.86307 0.33708,1.36736 0,0.54452 -0.14869,1.04775 -0.44582,1.50998 -0.29739,0.46223 -0.72813,0.81174 -1.29249,1.04907 -0.56462,0.23707 -1.30387,0.35587 -2.218,0.35587 -1.18904,0 -2.08307,-0.18494 -2.68261,-0.55457 -0.3347,-0.20981 -0.50192,-0.45958 -0.50192,-0.7493 0,-0.21987 0.0736,-0.40587 0.22093,-0.55827 0.14737,-0.1524 0.32597,-0.2286 0.53578,-0.2286 0.14473,0 0.29475,0.05 0.44953,0.14976 0.21987,0.14975 0.42704,0.24976 0.62203,0.29977 0.29978,0.0701 0.71173,0.10477 1.2364,0.10477 0.89403,0 1.54093,-0.11615 1.94072,-0.34845 0.39952,-0.23231 0.59955,-0.56065 0.59955,-0.98531 0,-0.31459 -0.11616,-0.61807 -0.34846,-0.91043 -0.2323,-0.29237 -0.54319,-0.51806 -0.93292,-0.67813 -0.2249,-0.09 -0.60457,-0.1524 -1.13903,-0.18732 -0.2548,-0.0151 -0.45085,-0.0937 -0.58817,-0.23601 -0.13758,-0.14235 -0.20611,-0.31856 -0.20611,-0.52838 0,-0.21986 0.0749,-0.40454 0.22489,-0.55456 0.15002,-0.15002 0.33973,-0.2249 0.56939,-0.2249 0.50959,0 0.78184,-0.002 0.81677,-0.007 0.19976,-0.0198 0.39952,-0.0849 0.59954,-0.19473 0.19976,-0.1098 0.36089,-0.26088 0.4834,-0.45323 0.12223,-0.19235 0.18362,-0.39079 0.18362,-0.59558 0,-0.32464 -0.14367,-0.60563 -0.43074,-0.84296 -0.28734,-0.23707 -0.71808,-0.35586 -1.29249,-0.35586 -0.73925,0 -1.30387,0.21484 -1.69334,0.64452 -0.11509,0.12488 -0.20743,0.20479 -0.27728,0.23971 -0.10478,0.055 -0.22225,0.0825 -0.35216,0.0825 -0.20982,0 -0.38973,-0.0749 -0.53949,-0.22489 -0.14975,-0.15002 -0.22489,-0.3347 -0.22489,-0.55457 0,-0.34475 0.22966,-0.67919 0.68924,-1.00409 0.66939,-0.4744 1.50601,-0.71173 2.5101,-0.71173 0.94906,0 1.71079,0.26987 2.28547,0.80936 0.57441,0.53948 0.86175,1.18904 0.86175,1.94812 0,0.39476 -0.0849,0.76306 -0.2548,1.10517 -0.17012,0.34237 -0.42492,0.65855 -0.76464,0.948 z"
       id="path3798"
       inkscape:connector-curvature="0"
       style="fill:#005db2;stroke-width:0.26458332" />
    <path
       class="st2"
       d="m 145.47417,218.49431 c 0.18468,-0.17489 0.37465,-0.2622 0.56939,-0.2622 0.21986,0 0.4011,0.0786 0.54318,0.23601 0.14262,0.15742 0.21379,0.41857 0.21379,0.7829 v 0.98901 c 0,0.36962 -0.0712,0.63209 -0.21379,0.78687 -0.14208,0.15478 -0.32834,0.23231 -0.558,0.23231 -0.20982,0 -0.38709,-0.0601 -0.53208,-0.17992 -0.10477,-0.09 -0.18732,-0.27358 -0.24738,-0.55086 -0.0601,-0.27729 -0.20479,-0.4834 -0.43471,-0.61807 -0.40482,-0.23971 -0.92181,-0.35957 -1.55126,-0.35957 -0.72443,0 -1.30519,0.21246 -1.74201,0.63685 -0.43709,0.42466 -0.65564,0.96176 -0.65564,1.61105 0,0.59955 0.20981,1.07289 0.62944,1.42002 0.41963,0.3474 1.11654,0.5207 2.09048,0.5207 0.63949,0 1.16152,-0.0648 1.56606,-0.19473 0.23972,-0.0799 0.46726,-0.2159 0.68184,-0.40825 0.21484,-0.19236 0.40957,-0.2884 0.58446,-0.2884 0.20982,0 0.39105,0.0775 0.54319,0.2323 0.1524,0.15479 0.2286,0.33708 0.2286,0.5469 0,0.33972 -0.2323,0.66199 -0.69691,0.96652 -0.68924,0.45455 -1.69836,0.68183 -3.02736,0.68183 -1.19407,0 -2.12302,-0.24738 -2.78739,-0.74189 -0.89905,-0.66437 -1.34885,-1.57348 -1.34885,-2.72759 0,-1.09405 0.3646,-1.99946 1.09406,-2.71621 0.72919,-0.71676 1.68089,-1.07527 2.85485,-1.07527 0.42439,0 0.81941,0.04 1.18401,0.11986 0.36486,0.0802 0.7022,0.20002 1.01203,0.35983 z"
       id="path3800"
       inkscape:connector-curvature="0"
       style="fill:#005db2;stroke-width:0.26458332" />
    <path
       class="st2"
       d="m 150.70419,215.30211 v 3.27449 c 0.31962,-0.18971 0.6432,-0.33073 0.97023,-0.42334 0.32729,-0.0923 0.65828,-0.13864 0.99298,-0.13864 0.52943,0 1.00145,0.09 1.41631,0.26988 0.41487,0.17991 0.75803,0.46328 1.03056,0.85037 0.27199,0.38708 0.40825,0.8755 0.40825,1.465 v 2.88475 c 0.38973,0 0.64452,0.0376 0.76438,0.11245 0.23971,0.15478 0.35957,0.37465 0.35957,0.65934 0,0.22489 -0.0775,0.40825 -0.23231,0.55086 -0.15478,0.14261 -0.41698,0.21352 -0.78687,0.21352 h -1.75339 c -0.3646,0 -0.62574,-0.0712 -0.7829,-0.21352 -0.15769,-0.14235 -0.23628,-0.32835 -0.23628,-0.55827 0,-0.27967 0.11986,-0.49689 0.35957,-0.65193 0.12489,-0.0799 0.37968,-0.11722 0.76438,-0.11245 v -2.77998 c 0,-0.39449 -0.0899,-0.67178 -0.26987,-0.83185 -0.23495,-0.21484 -0.58182,-0.32226 -1.04167,-0.32226 -0.33972,0 -0.64055,0.0661 -0.90302,0.19844 -0.26194,0.13229 -0.61542,0.41857 -1.06018,0.85804 v 2.87734 c 0.39449,0 0.64928,0.0376 0.76438,0.11245 0.24474,0.15478 0.36724,0.37465 0.36724,0.65934 0,0.2249 -0.0786,0.40825 -0.23627,0.55086 -0.15717,0.14235 -0.42069,0.21352 -0.79031,0.21352 h -1.74599 c -0.36962,0 -0.63315,-0.0712 -0.79057,-0.21352 -0.15717,-0.14234 -0.23601,-0.32834 -0.23601,-0.55827 0,-0.27966 0.1225,-0.49688 0.36724,-0.65193 0.11985,-0.0799 0.37465,-0.11721 0.76438,-0.11245 v -6.64607 h -0.2622 c -0.36963,0 -0.63341,-0.0712 -0.79031,-0.21351 -0.15769,-0.14235 -0.23628,-0.32835 -0.23628,-0.55828 0,-0.22489 0.0786,-0.40825 0.23628,-0.55086 0.15716,-0.14234 0.42068,-0.21352 0.79031,-0.21352 z"
       id="path3802"
       inkscape:connector-curvature="0"
       style="fill:#005db2;stroke-width:0.26458332" />
    <path
       class="st1"
       d="m 161.48675,219.7532 v 3.73168 h 2.18811 c 0.36962,0 0.63341,0.0712 0.79031,0.21352 0.15769,0.14235 0.23627,0.32861 0.23627,0.55827 0,0.2249 -0.0786,0.40825 -0.23627,0.55086 -0.15716,0.14235 -0.42069,0.21352 -0.79031,0.21352 h -4.63815 c -0.36962,0 -0.63314,-0.0712 -0.79057,-0.21352 -0.15716,-0.14234 -0.23601,-0.32834 -0.23601,-0.55827 0,-0.22489 0.0788,-0.40825 0.23601,-0.55086 0.15769,-0.14235 0.42095,-0.21352 0.79057,-0.21352 h 0.91414 v -3.73168 h -0.73422 c -0.36962,0 -0.63315,-0.0712 -0.79058,-0.21352 -0.15716,-0.14235 -0.236,-0.32835 -0.236,-0.55827 0,-0.2249 0.0788,-0.40825 0.236,-0.55086 0.1577,-0.14235 0.42096,-0.21352 0.79058,-0.21352 h 0.73422 v -0.58447 c 0,-0.66939 0.25109,-1.22502 0.753,-1.66714 0.50218,-0.44212 1.23005,-0.66304 2.1844,-0.66304 0.42439,0 0.91546,0.0386 1.47214,0.11615 0.55695,0.0775 0.91414,0.18627 1.07183,0.32597 0.15716,0.13996 0.23601,0.31961 0.23601,0.53948 0,0.23495 -0.0701,0.42598 -0.20981,0.57335 -0.1397,0.14738 -0.31221,0.22093 -0.517,0.22093 -0.0947,0 -0.23707,-0.0175 -0.42704,-0.0524 -0.6342,-0.12488 -1.19618,-0.18732 -1.68592,-0.18732 -0.50959,0 -0.86043,0.0762 -1.05278,0.2286 -0.19262,0.1524 -0.28866,0.34105 -0.28866,0.56568 v 0.58446 h 2.36776 c 0.36962,0 0.63341,0.0712 0.79031,0.21352 0.15769,0.14235 0.23627,0.32861 0.23627,0.55827 0,0.2249 -0.0786,0.40825 -0.23627,0.55086 -0.15717,0.14235 -0.42069,0.21352 -0.79031,0.21352 h -2.36803 z"
       id="path3804"
       inkscape:connector-curvature="0"
       style="fill:#ff9e00;stroke-width:0.26458332" />
    <path
       class="st1"
       d="m 174.5622,222.39824 h -6.30158 c 0.15981,0.39978 0.44344,0.72205 0.85063,0.96652 0.40693,0.24474 0.95779,0.36724 1.65206,0.36724 0.56938,0 1.32636,-0.12223 2.27039,-0.36724 0.38973,-0.0998 0.65934,-0.14975 0.80936,-0.14975 0.20479,0 0.3773,0.0725 0.517,0.21722 0.1397,0.14499 0.20981,0.32729 0.20981,0.54689 0,0.19976 -0.0749,0.36963 -0.22489,0.50959 -0.19976,0.18494 -0.68686,0.36089 -1.46103,0.52837 -0.77417,0.16749 -1.51845,0.25109 -2.23282,0.25109 -1.22899,0 -2.21165,-0.34713 -2.94852,-1.04166 -0.73686,-0.69427 -1.10543,-1.54861 -1.10543,-2.56276 0,-1.07897 0.39846,-1.95685 1.19539,-2.63392 0.79666,-0.67681 1.7145,-1.01521 2.75352,-1.01521 0.62441,0 1.1975,0.11007 1.71953,0.32967 0.52228,0.21987 0.91043,0.4572 1.16522,0.71173 0.35957,0.36962 0.6567,0.82682 0.89165,1.37134 0.1598,0.37967 0.23971,0.81941 0.23971,1.31868 z m -1.70074,-1.53617 c -0.23495,-0.43948 -0.54213,-0.76809 -0.92155,-0.98531 -0.37941,-0.21722 -0.83185,-0.32597 -1.35625,-0.32597 -0.51964,0 -0.96917,0.10875 -1.34885,0.32597 -0.37967,0.21722 -0.68924,0.54583 -0.92921,0.98531 z"
       id="path3806"
       inkscape:connector-curvature="0"
       style="fill:#ff9e00;stroke-width:0.26458332" />
    <path
       class="st1"
       d="m 181.57577,220.0154 c -0.24976,-0.15478 -0.51223,-0.27093 -0.78687,-0.34846 -0.27463,-0.0773 -0.56197,-0.11615 -0.86175,-0.11615 -0.59451,0 -1.06653,0.0974 -1.41631,0.2921 -0.15478,0.0849 -0.2323,0.17727 -0.2323,0.27729 0,0.11509 0.10477,0.22727 0.31459,0.33707 0.1598,0.0799 0.51699,0.15743 1.07156,0.23231 1.01917,0.13996 1.72826,0.27993 2.12804,0.41963 0.52441,0.18494 0.92922,0.45958 1.21391,0.82418 0.28469,0.36459 0.42704,0.7493 0.42704,1.15384 0,0.54954 -0.24236,1.00912 -0.72681,1.37875 -0.69427,0.53472 -1.59597,0.80168 -2.7051,0.80168 -0.44477,0 -0.8554,-0.0386 -1.23243,-0.11615 -0.3773,-0.0775 -0.72311,-0.19103 -1.03796,-0.34105 -0.0749,0.0651 -0.15478,0.1151 -0.23971,0.14976 -0.0849,0.0349 -0.17225,0.0524 -0.26221,0.0524 -0.23971,0 -0.431,-0.0786 -0.57308,-0.23601 -0.14261,-0.15743 -0.21379,-0.42069 -0.21379,-0.79058 v -0.51699 c 0,-0.36963 0.0712,-0.63315 0.21379,-0.79058 0.14208,-0.15743 0.32834,-0.23601 0.558,-0.23601 0.18468,0 0.33973,0.0513 0.46461,0.15373 0.12488,0.10239 0.22225,0.2786 0.2921,0.52837 0.23495,0.19976 0.517,0.3511 0.84667,0.45323 0.32967,0.10239 0.70934,0.15372 1.13903,0.15372 0.70432,0 1.25121,-0.1098 1.64094,-0.32967 0.18468,-0.1098 0.27729,-0.22489 0.27729,-0.34475 0,-0.19976 -0.13229,-0.3646 -0.39714,-0.49451 -0.26485,-0.12991 -0.81174,-0.23971 -1.64095,-0.32967 -1.23375,-0.12991 -2.05793,-0.37967 -2.47279,-0.7493 -0.41461,-0.36459 -0.62204,-0.81412 -0.62204,-1.34884 0,-0.54954 0.2323,-1.00648 0.69691,-1.37134 0.62945,-0.49953 1.45362,-0.7493 2.4728,-0.7493 0.35481,0 0.69559,0.0336 1.02261,0.10107 0.32729,0.0675 0.64082,0.17119 0.9406,0.31089 0.0947,-0.0699 0.18335,-0.12224 0.26617,-0.15743 0.0823,-0.0349 0.15848,-0.0524 0.22833,-0.0524 0.20982,0 0.38471,0.0786 0.52441,0.23601 0.1397,0.15743 0.20981,0.42095 0.20981,0.79058 v 0.37465 c 0,0.3347 -0.0399,0.56197 -0.11985,0.68183 -0.15981,0.22992 -0.3773,0.34475 -0.65194,0.34475 -0.18468,0 -0.3474,-0.0574 -0.4871,-0.17224 -0.13917,-0.1143 -0.22912,-0.26644 -0.26908,-0.45641 z"
       id="path3808"
       inkscape:connector-curvature="0"
       style="fill:#ff9e00;stroke-width:0.26458332" />
    <path
       class="st1"
       d="m 188.74678,219.7532 v 3.07975 c 0,0.32967 0.0675,0.54689 0.2024,0.65193 0.20982,0.16484 0.58447,0.24739 1.12395,0.24739 0.78423,0 1.50866,-0.16722 2.17302,-0.50192 0.2548,-0.12991 0.45456,-0.19473 0.59955,-0.19473 0.19976,0 0.37333,0.0749 0.5207,0.2249 0.14764,0.14975 0.22119,0.33231 0.22119,0.54689 0,0.19976 -0.0799,0.37227 -0.23971,0.51699 -0.24474,0.23495 -0.72813,0.45085 -1.44992,0.64823 -0.72178,0.19738 -1.32979,0.29607 -1.82456,0.29607 -0.95409,0 -1.66979,-0.20611 -2.14683,-0.61806 -0.47705,-0.41222 -0.71544,-0.91784 -0.71544,-1.51739 v -3.38005 h -0.55456 c -0.36963,0 -0.63342,-0.0712 -0.79031,-0.21352 -0.15769,-0.14235 -0.23628,-0.32835 -0.23628,-0.55827 0,-0.2249 0.0786,-0.40825 0.23628,-0.55086 0.15716,-0.14235 0.42068,-0.21352 0.79031,-0.21352 h 0.55456 v -1.38615 c 0,-0.36963 0.0712,-0.63315 0.21379,-0.79058 0.14208,-0.15743 0.32834,-0.23601 0.558,-0.23601 0.2249,0 0.40826,0.0786 0.55087,0.23601 0.14208,0.15743 0.21351,0.42095 0.21351,0.79058 v 1.38615 h 2.83978 c 0.36962,0 0.63341,0.0712 0.79031,0.21352 0.15769,0.14234 0.23627,0.32861 0.23627,0.55827 0,0.22489 -0.0786,0.40825 -0.23627,0.55086 -0.15716,0.14235 -0.42069,0.21352 -0.79031,0.21352 z"
       id="path3810"
       inkscape:connector-curvature="0"
       style="fill:#ff9e00;stroke-width:0.26458332" />
  </g>
</svg>
