<?xml version="1.0" encoding="UTF-8" standalone="no"?>
<svg
   xmlns:dc="http://purl.org/dc/elements/1.1/"
   xmlns:cc="http://creativecommons.org/ns#"
   xmlns:rdf="http://www.w3.org/1999/02/22-rdf-syntax-ns#"
   xmlns:svg="http://www.w3.org/2000/svg"
   xmlns="http://www.w3.org/2000/svg"
   xmlns:sodipodi="http://sodipodi.sourceforge.net/DTD/sodipodi-0.dtd"
   xmlns:inkscape="http://www.inkscape.org/namespaces/inkscape"
   viewBox="0 0 80 80"
   version="1.1"
   x="0px"
   y="0px"
   id="svg8"
   sodipodi:docname="baby.svg"
   inkscape:version="0.92.2 5c3e80d, 2017-08-06">
  <metadata
     id="metadata14">
    <rdf:RDF>
      <cc:Work
         rdf:about="">
        <dc:format>image/svg+xml</dc:format>
        <dc:type
           rdf:resource="http://purl.org/dc/dcmitype/StillImage" />
        <dc:title></dc:title>
      </cc:Work>
    </rdf:RDF>
  </metadata>
  <defs
     id="defs12" />
  <sodipodi:namedview
     pagecolor="#ffffff"
     bordercolor="#666666"
     borderopacity="1"
     objecttolerance="10"
     gridtolerance="10"
     guidetolerance="10"
     inkscape:pageopacity="0"
     inkscape:pageshadow="2"
     inkscape:window-width="1916"
     inkscape:window-height="938"
     id="namedview10"
     showgrid="false"
     inkscape:zoom="2.95"
     inkscape:cx="-1.1864407"
     inkscape:cy="40"
     inkscape:window-x="0"
     inkscape:window-y="140"
     inkscape:window-maximized="0"
     inkscape:current-layer="svg8" />
  <path
     style="fill:#ffffff"
     d="M 30.59375 32.6875 C 29.116971 32.786763 27.763898 33.726962 27.25 35.21875 L 20.875 53.78125 C 20.189808 55.77035 21.229678 57.90854 23.21875 58.59375 L 59.90625 71.21875 L 61.625 86.34375 C 61.86235 88.433788 63.727857 89.903851 65.8125 89.625 L 70.3125 89 C 70.526737 89.004125 70.749765 89.00395 70.96875 88.96875 L 72.4375 88.71875 C 80.465616 87.65254 88.273489 86.196696 96.3125 84.90625 C 98.38969 84.572762 99.802228 82.6397 99.46875 80.5625 L 98.28125 73.15625 C 97.947784 71.079091 96.01468 69.666512 93.9375 70 L 80.03125 72.25 C 80.205191 62.593992 81.712535 50.119276 77.1875 48.40625 L 32.09375 32.875 C 31.596483 32.703699 31.086004 32.65431 30.59375 32.6875 z M 69.46875 47.375 C 72.859386 48.503486 75.054182 49.308834 76.625 49.9375 C 80.127152 51.339174 79.183527 60.239771 79.03125 66.875 L 61.875 75.5625 L 61.15625 70.125 L 59.40625 69.4375 L 60.21875 67.5625 L 69.46875 47.375 z "
     transform="scale(0.8,0.8)"
     fill="#000000"
     fill-opacity="1"
     stroke="none"
     id="path2" />
  <rect
     style="fill:#ffffff"
     width="9.113862"
     height="30.22764"
     x="27.995438"
     y="33.918743"
     rx="3.0379541"
     ry="3.0379541"
     transform="matrix(0.96026015,0.2791065,-0.2791065,0.96026015,0,0)"
     fill="#000000"
     fill-opacity="1"
     stroke="none"
     id="rect4" />
  <path
     style="fill:#ffffff"
     d="m -166.47053,3804.0345 a 42.25,42.25 0 1 1 -0.0295,1.5778"
     transform="matrix(0.30322163,-0.01866233,0.01866233,0.30322163,-15.123311,-1129.9138)"
     fill="#000000"
     fill-opacity="1"
     stroke="none"
     id="path6" />
</svg>
