<?xml version="1.0" encoding="UTF-8" standalone="no"?>
<svg
   xmlns:dc="http://purl.org/dc/elements/1.1/"
   xmlns:cc="http://creativecommons.org/ns#"
   xmlns:rdf="http://www.w3.org/1999/02/22-rdf-syntax-ns#"
   xmlns:svg="http://www.w3.org/2000/svg"
   xmlns="http://www.w3.org/2000/svg"
   xmlns:sodipodi="http://sodipodi.sourceforge.net/DTD/sodipodi-0.dtd"
   xmlns:inkscape="http://www.inkscape.org/namespaces/inkscape"
   version="1.1"
   x="0px"
   y="0px"
   viewBox="0 0 80 80"
   enable-background="new 0 0 24 24"
   xml:space="preserve"
   id="svg351"
   sodipodi:docname="expert.svg"
   width="80"
   height="80"
   inkscape:version="0.92.2 5c3e80d, 2017-08-06"><metadata
     id="metadata357"><rdf:RDF><cc:Work
         rdf:about=""><dc:format>image/svg+xml</dc:format><dc:type
           rdf:resource="http://purl.org/dc/dcmitype/StillImage" /><dc:title></dc:title></cc:Work></rdf:RDF></metadata><defs
     id="defs355" /><sodipodi:namedview
     pagecolor="#ffffff"
     bordercolor="#666666"
     borderopacity="1"
     objecttolerance="10"
     gridtolerance="10"
     guidetolerance="10"
     inkscape:pageopacity="0"
     inkscape:pageshadow="2"
     inkscape:window-width="1916"
     inkscape:window-height="938"
     id="namedview353"
     showgrid="false"
     inkscape:zoom="7.8666667"
     inkscape:cx="-5.1610169"
     inkscape:cy="35.338983"
     inkscape:window-x="0"
     inkscape:window-y="140"
     inkscape:window-maximized="0"
     inkscape:current-layer="svg351" /><g
     id="g345"
     transform="matrix(3.65,0,0,3.65,-3.8,-3.8)"
     style="fill:#ffffff"><g
       id="g343"
       style="fill:#ffffff"><path
         d="M 9.488,14.334 C 10.977,13.31 12,11.276 12,9.5 12,7.019 9.981,5 7.5,5 5.019,5 3,7.019 3,9.5 3,11.276 4.023,13.31 5.512,14.334 4.2,14.867 2,15.985 2,17.5 v 4 C 2,21.776 2.224,22 2.5,22 h 10 c 0.276,0 0.5,-0.224 0.5,-0.5 v -4 c 0,-1.515 -2.2,-2.633 -3.512,-3.166 z"
         id="path339"
         inkscape:connector-curvature="0"
         style="fill:#ffffff" /><path
         d="M 22,5.5 C 22,3.57 20.43,2 18.5,2 16.57,2 15,3.57 15,5.5 c 0,0.95 0.383,1.811 1,2.441 V 13.5 c 0,0.202 0.122,0.385 0.309,0.462 0.188,0.077 0.402,0.035 0.545,-0.108 l 1.646,-1.646 1.646,1.646 C 20.242,13.949 20.37,14 20.5,14 20.564,14 20.629,13.987 20.691,13.962 20.878,13.885 21,13.702 21,13.5 V 8 C 21,7.983 20.992,7.97 20.991,7.953 21.613,7.321 22,6.455 22,5.5 Z"
         id="path341"
         inkscape:connector-curvature="0"
         style="fill:#ffffff" /></g></g><text
     x="0"
     y="89"
     font-size="5px"
     font-weight="bold"
     id="text347"
     style="font-weight:bold;font-size:5px;font-family:'Helvetica Neue', Helvetica, Arial-Unicode, Arial, Sans-serif;fill:#000000">Created by Ralf Schmitzer</text>
<text
     x="0"
     y="94"
     font-size="5px"
     font-weight="bold"
     id="text349"
     style="font-weight:bold;font-size:5px;font-family:'Helvetica Neue', Helvetica, Arial-Unicode, Arial, Sans-serif;fill:#000000">from the Noun Project</text>
</svg>