<?xml version="1.0" encoding="UTF-8" standalone="no"?>
<svg
   xmlns:dc="http://purl.org/dc/elements/1.1/"
   xmlns:cc="http://creativecommons.org/ns#"
   xmlns:rdf="http://www.w3.org/1999/02/22-rdf-syntax-ns#"
   xmlns:svg="http://www.w3.org/2000/svg"
   xmlns="http://www.w3.org/2000/svg"
   xmlns:sodipodi="http://sodipodi.sourceforge.net/DTD/sodipodi-0.dtd"
   xmlns:inkscape="http://www.inkscape.org/namespaces/inkscape"
   version="1.1"
   id="Layer_1"
   x="0px"
   y="0px"
   width="80"
   height="80"
   viewBox="0 0 80 80"
   enable-background="new 0 0 128 128"
   xml:space="preserve"
   sodipodi:docname="opinion.svg"
   inkscape:version="0.92.2 5c3e80d, 2017-08-06"><metadata
     id="metadata284"><rdf:RDF><cc:Work
         rdf:about=""><dc:format>image/svg+xml</dc:format><dc:type
           rdf:resource="http://purl.org/dc/dcmitype/StillImage" /><dc:title></dc:title></cc:Work></rdf:RDF></metadata><defs
     id="defs282" /><sodipodi:namedview
     pagecolor="#ffffff"
     bordercolor="#666666"
     borderopacity="1"
     objecttolerance="10"
     gridtolerance="10"
     guidetolerance="10"
     inkscape:pageopacity="0"
     inkscape:pageshadow="2"
     inkscape:window-width="1916"
     inkscape:window-height="938"
     id="namedview280"
     showgrid="false"
     inkscape:zoom="1.84375"
     inkscape:cx="-8.6779661"
     inkscape:cy="64"
     inkscape:window-x="0"
     inkscape:window-y="140"
     inkscape:window-maximized="0"
     inkscape:current-layer="Layer_1" /><g
     id="g277"
     transform="matrix(0.5679118,0,0,0.5679118,3.2186244,3.8554998)"
     style="fill:#ffffff"><g
       id="g275"
       style="fill:#ffffff"><path
         d="m 113.404,29.577 h -7.123 v 30.387 c 0,14.578 -9.452,26.437 -21.066,26.437 H 36.934 v 2.941 c 0,10.707 6.536,19.383 14.596,19.383 h 43.552 c 5.047,6.98 26.196,21.211 26.682,18.135 0.366,-2.318 -6.233,-10.301 -6.228,-18.363 C 122.583,107.121 128,99.087 128,89.343 V 48.96 C 127.998,38.255 121.462,29.577 113.404,29.577 Z M 101.978,61.963 V 20.102 C 101.978,9.01 95.157,0 86.745,0 H 16.751 C 8.352,0 1.532,9.01 1.532,20.102 v 41.861 c 0,10.099 5.644,18.43 13,19.852 0,8.361 -6.879,16.629 -6.493,19.029 0.018,0.078 0.032,0.142 0.075,0.203 0.239,0.364 0.969,0.301 2.072,-0.078 0.594,-0.204 1.295,-0.505 2.07,-0.887 0.015,0 0.015,-0.015 0.015,-0.015 4.171,-2.05 10.677,-6.389 15.977,-10.651 1.652,-1.342 3.186,-2.663 4.497,-3.927 0.522,-0.489 0.998,-0.979 1.445,-1.452 0.67,-0.709 1.236,-1.373 1.682,-1.988 h 50.876 c 8.409,0 15.23,-8.993 15.23,-20.086 z"
         id="path273"
         inkscape:connector-curvature="0"
         style="fill:#ffffff" /></g></g></svg>