<?xml version="1.0" encoding="UTF-8" standalone="no"?>
<!-- Generator: Adobe Illustrator 16.0.0, SVG Export Plug-In . SVG Version: 6.00 Build 0)  -->

<svg
   xmlns:dc="http://purl.org/dc/elements/1.1/"
   xmlns:cc="http://creativecommons.org/ns#"
   xmlns:rdf="http://www.w3.org/1999/02/22-rdf-syntax-ns#"
   xmlns:svg="http://www.w3.org/2000/svg"
   xmlns="http://www.w3.org/2000/svg"
   xmlns:sodipodi="http://sodipodi.sourceforge.net/DTD/sodipodi-0.dtd"
   xmlns:inkscape="http://www.inkscape.org/namespaces/inkscape"
   version="1.1"
   id="Layer_1"
   x="0px"
   y="0px"
   width="80"
   height="80"
   viewBox="0 0 80 80"
   xml:space="preserve"
   sodipodi:docname="python.svg"
   inkscape:version="0.92.2 5c3e80d, 2017-08-06"><metadata
     id="metadata4895"><rdf:RDF><cc:Work
         rdf:about=""><dc:format>image/svg+xml</dc:format><dc:type
           rdf:resource="http://purl.org/dc/dcmitype/StillImage" /><dc:title></dc:title></cc:Work></rdf:RDF></metadata><defs
     id="defs4893" /><sodipodi:namedview
     pagecolor="#ffffff"
     bordercolor="#666666"
     borderopacity="1"
     objecttolerance="10"
     gridtolerance="10"
     guidetolerance="10"
     inkscape:pageopacity="0"
     inkscape:pageshadow="2"
     inkscape:window-width="1916"
     inkscape:window-height="910"
     id="namedview4891"
     showgrid="false"
     inkscape:zoom="0.921875"
     inkscape:cx="-18.440678"
     inkscape:cy="-0.79074777"
     inkscape:window-x="0"
     inkscape:window-y="168"
     inkscape:window-maximized="0"
     inkscape:current-layer="Layer_1" /><path
     d="m 39.70459,3.317005 c 2.585515,0 4.876725,0.18319 6.873075,0.54791 1.99525,0.36637 3.58397,0.82957 4.76451,1.39123 1.18108,0.56166 2.19274,1.19484 3.03606,1.89678 0.84331,0.70414 1.41983,1.40663 1.72954,2.10857 0.30806,0.70304 0.54846,1.33622 0.71625,1.89733 0.16888,0.56221 0.22389,1.04136 0.16888,1.43304 v 0.5061 16.19194 c 0,1.79941 -0.32402,3.37328 -0.9704,4.7216 -0.64692,1.35052 -1.44789,2.31981 -2.40288,2.91008 -0.95719,0.58972 -1.89733,1.05346 -2.82591,1.39123 -0.92749,0.33667 -1.70094,0.5061 -2.31872,0.5061 l -1.0122,0.0836 h -16.86528 c -1.912183,0 -3.556462,0.36637 -4.933388,1.09637 -1.378576,0.73055 -2.361623,1.60247 -2.951891,2.61467 -0.590269,1.01166 -1.054562,2.02386 -1.391229,3.03551 -0.337218,1.0122 -0.534707,1.88468 -0.590269,2.61468 v 1.09637 8.76985 h -5.987949 c -0.113323,0 -0.295409,0 -0.54846,0 -0.251951,0 -0.716244,-0.0979 -1.391229,-0.29486 -0.674435,-0.19694 -1.335668,-0.49235 -1.981497,-0.88567 -0.64693,-0.39223 -1.34942,-1.04026 -2.108022,-1.93969 -0.759152,-0.89888 -1.420935,-1.96665 -1.981497,-3.20494 -0.562763,-1.235 -1.027056,-2.87928 -1.391229,-4.93229 -0.366374,-2.05191 -0.54846,-4.37063 -0.54846,-6.9567 0,-2.02495 0.125975,-3.87937 0.379026,-5.56601 0.253051,-1.68609 0.602921,-3.10537 1.054561,-4.25786 0.44944,-1.15248 0.954441,-2.19273 1.517204,-3.12132 0.561663,-0.92804 1.166784,-1.64428 1.813714,-2.14928 0.644729,-0.5061 1.277906,-0.95554 1.89733,-1.35052 0.617774,-0.39278 1.222345,-0.64473 1.812613,-0.75805 0.590268,-0.11223 1.09637,-0.21125 1.518304,-0.29486 0.421385,-0.0842 0.771805,-0.0985 1.053461,-0.0429 h 0.421935 23.780715 v -2.52941 H 23.007645 v -8.43319 c -0.05666,-0.22389 -0.07097,-0.51875 -0.04236,-0.88513 0.02751,-0.36472 0.295409,-1.0122 0.801511,-1.93913 0.506101,-0.92859 1.278456,-1.74275 2.318714,-2.44579 1.039709,-0.70249 2.74065,-1.34942 5.102273,-1.93914 2.360523,-0.59082 5.199642,-0.88623 8.516806,-0.88623 z m 0.590819,73.366 c -2.587169,0 -4.878378,-0.18264 -6.873078,-0.54681 -1.99635,-0.36747 -3.583968,-0.83067 -4.764504,-1.39178 -1.181087,-0.56221 -2.19274,-1.19539 -3.036059,-1.89733 -0.843318,-0.70414 -1.420934,-1.40663 -1.729546,-2.10857 -0.309712,-0.70194 -0.54846,-1.33457 -0.716244,-1.89733 -0.168883,-0.56111 -0.225545,-1.03971 -0.168883,-1.43304 v -0.5061 -16.19194 c 0,-1.79831 0.323464,-3.37328 0.970394,-4.7216 0.644729,-1.34942 1.44624,-2.31981 2.402881,-2.91008 0.955542,-0.58972 1.897331,-1.05346 2.825917,-1.39123 0.927486,-0.33667 1.69929,-0.53361 2.318714,-0.58972 h 1.012203 16.865281 c 1.91108,0 3.55591,-0.36582 4.93339,-1.09637 1.37637,-0.73 2.36162,-1.60247 2.95189,-2.61467 0.59027,-1.01166 1.05456,-2.02276 1.39123,-3.03551 0.33721,-1.0122 0.5336,-1.88358 0.59027,-2.61468 v -1.09637 -8.77095 h 5.98795 c 0.11167,0 0.2954,0 0.54845,0 0.25196,0 0.71625,0.0996 1.39123,0.29486 0.67444,0.19804 1.33402,0.49289 1.9815,0.88567 0.64528,0.39388 1.34942,1.04081 2.10802,1.93969 0.75916,0.89998 1.40498,1.96775 1.93969,3.20494 0.53361,1.23665 0.99735,2.88038 1.39123,4.93229 0.39278,2.05356 0.59027,4.37173 0.59027,6.9567 0,2.58717 -0.21014,4.89213 -0.63208,6.91598 -0.42138,2.02276 -0.96929,3.63953 -1.64428,4.84812 -0.67443,1.2097 -1.42093,2.23455 -2.23455,3.07842 -0.81581,0.84277 -1.63052,1.43304 -2.44579,1.77081 -0.81471,0.33776 -1.55956,0.58971 -2.23454,0.75915 -0.67444,0.16888 -1.2097,0.22554 -1.60247,0.16888 h -0.67444 -23.780714 v 2.52941 h 17.034714 v 8.43319 c 0.055,0.22554 0.0693,0.5204 0.0424,0.88623 -0.0292,0.36527 -0.29541,1.0111 -0.80151,1.93803 -0.5061,0.92859 -1.27901,1.74275 -2.31872,2.44579 -1.04191,0.70249 -2.74065,1.34942 -5.10227,1.93914 -2.36162,0.59137 -5.20129,0.88678 -8.517906,0.88678 z M 32.494295,9.894675 c -0.590268,-0.61833 -1.306511,-0.92859 -2.14983,-0.92859 -0.843319,0 -1.560113,0.30971 -2.150931,0.92859 -0.590268,0.61942 -0.885128,1.37802 -0.885128,2.2769 0,0.89998 0.29486,1.65914 0.885128,2.27691 0.590268,0.61942 1.307612,0.92859 2.150931,0.92859 0.843319,0 1.559562,-0.30917 2.14983,-0.92859 0.591369,-0.61777 0.886228,-1.37693 0.886228,-2.27691 0,-0.89888 -0.294859,-1.65748 -0.886228,-2.2769 z m 15.01141,60.21066 c 0.59027,0.61943 1.30651,0.92859 2.14983,0.92859 0.84332,0 1.56011,-0.30916 2.15093,-0.92859 0.59027,-0.61777 0.88513,-1.37582 0.88513,-2.2769 0,-0.89833 -0.29486,-1.65749 -0.88513,-2.27691 -0.59027,-0.61777 -1.30761,-0.92749 -2.15093,-0.92749 -0.84332,0 -1.55956,0.30917 -2.14983,0.92749 -0.59137,0.61942 -0.88623,1.37858 -0.88623,2.27691 0,0.90108 0.29486,1.65913 0.88623,2.2769 z"
     id="path4888"
     inkscape:connector-curvature="0"
     style="stroke-width:0.55011022;fill:#ffffff" /></svg>